TITLE ""
FILE "DISC2Track07.mp3" MP3
  TRACK 01 AUDIO
    TITLE "DISC2Track07_01"
    INDEX 01 00:00:00
  TRACK 02 AUDIO
    TITLE "DISC2Track07_02"
    INDEX 01 00:01:29
  TRACK 03 AUDIO
    TITLE "DISC2Track07_03"
    INDEX 01 00:01:37
  TRACK 04 AUDIO
    TITLE "DISC2Track07_04"
    INDEX 01 00:04:51
  TRACK 05 AUDIO
    TITLE "DISC2Track07_05"
    INDEX 01 00:08:02
  TRACK 06 AUDIO
    TITLE "DISC2Track07_06"
    INDEX 01 00:11:00
  TRACK 07 AUDIO
    TITLE "DISC2Track07_07"
    INDEX 01 00:11:14
  TRACK 08 AUDIO
    TITLE "DISC2Track07_08"
    INDEX 01 00:15:24
  TRACK 09 AUDIO
    TITLE "DISC2Track07_09"
    INDEX 01 00:18:59
  TRACK 10 AUDIO
    TITLE "DISC2Track07_10"
    INDEX 01 00:21:67
  TRACK 11 AUDIO
    TITLE "DISC2Track07_11"
    INDEX 01 00:22:08
  TRACK 12 AUDIO
    TITLE "DISC2Track07_12"
    INDEX 01 00:25:22
  TRACK 13 AUDIO
    TITLE "DISC2Track07_13"
    INDEX 01 00:28:36
  TRACK 14 AUDIO
    TITLE "DISC2Track07_14"
    INDEX 01 00:31:15
  TRACK 15 AUDIO
    TITLE "DISC2Track07_15"
    INDEX 01 00:31:30
  TRACK 16 AUDIO
    TITLE "DISC2Track07_16"
    INDEX 01 00:32:73
  TRACK 17 AUDIO
    TITLE "DISC2Track07_17"
    INDEX 01 00:34:74
  TRACK 18 AUDIO
    TITLE "DISC2Track07_18"
    INDEX 01 00:36:55
  TRACK 19 AUDIO
    TITLE "DISC2Track07_19"
    INDEX 01 00:36:63
  TRACK 20 AUDIO
    TITLE "DISC2Track07_20"
    INDEX 01 00:40:61
  TRACK 21 AUDIO
    TITLE "DISC2Track07_21"
    INDEX 01 00:44:17
  TRACK 22 AUDIO
    TITLE "DISC2Track07_22"
    INDEX 01 00:47:27
  TRACK 23 AUDIO
    TITLE "DISC2Track07_23"
    INDEX 01 00:47:41
  TRACK 24 AUDIO
    TITLE "DISC2Track07_24"
    INDEX 01 00:50:42
  TRACK 25 AUDIO
    TITLE "DISC2Track07_25"
    INDEX 01 00:53:48
  TRACK 26 AUDIO
    TITLE "DISC2Track07_26"
    INDEX 01 00:56:21
  TRACK 27 AUDIO
    TITLE "DISC2Track07_27"
    INDEX 01 00:56:36
  TRACK 28 AUDIO
    TITLE "DISC2Track07_28"
    INDEX 01 00:58:35
  TRACK 29 AUDIO
    TITLE "DISC2Track07_29"
    INDEX 01 01:00:54
  TRACK 30 AUDIO
    TITLE "DISC2Track07_30"
    INDEX 01 01:02:37
  TRACK 31 AUDIO
    TITLE "DISC2Track07_31"
    INDEX 01 01:02:54
  TRACK 32 AUDIO
    TITLE "DISC2Track07_32"
    INDEX 01 01:05:49
  TRACK 33 AUDIO
    TITLE "DISC2Track07_33"
    INDEX 01 01:08:32
  TRACK 34 AUDIO
    TITLE "DISC2Track07_34"
    INDEX 01 01:10:54
  TRACK 35 AUDIO
    TITLE "DISC2Track07_35"
    INDEX 01 01:10:68
  TRACK 36 AUDIO
    TITLE "DISC2Track07_36"
    INDEX 01 01:14:07
  TRACK 37 AUDIO
    TITLE "DISC2Track07_37"
    INDEX 01 01:17:17
  TRACK 38 AUDIO
    TITLE "DISC2Track07_38"
    INDEX 01 01:19:67
  TRACK 39 AUDIO
    TITLE "DISC2Track07_39"
    INDEX 01 01:20:09
  TRACK 40 AUDIO
    TITLE "DISC2Track07_40"
    INDEX 01 01:22:69
  TRACK 41 AUDIO
    TITLE "DISC2Track07_41"
    INDEX 01 01:26:06
  TRACK 42 AUDIO
    TITLE "DISC2Track07_42"
    INDEX 01 01:28:68
  TRACK 43 AUDIO
    TITLE "DISC2Track07_43"
    INDEX 01 01:29:08
  TRACK 44 AUDIO
    TITLE "DISC2Track07_44"
    INDEX 01 01:32:46
  TRACK 45 AUDIO
    TITLE "DISC2Track07_45"
    INDEX 01 01:36:36
  TRACK 46 AUDIO
    TITLE "DISC2Track07_46"
    INDEX 01 01:39:64
  TRACK 47 AUDIO
    TITLE "DISC2Track07_47"
    INDEX 01 01:40:06
  TRACK 48 AUDIO
    TITLE "DISC2Track07_48"
    INDEX 01 01:44:27
  TRACK 49 AUDIO
    TITLE "DISC2Track07_49"
    INDEX 01 01:47:61
  TRACK 50 AUDIO
    TITLE "DISC2Track07_50"
    INDEX 01 01:50:71
